<svg width="30" height="35" viewBox="0 0 30 35" fill="none" xmlns="http://www.w3.org/2000/svg">
<path d="M14.8646 3.28125C6.80729 3.28125 0.281252 9.80729 0.281252 17.8646C0.279598 20.926 1.24202 23.9103 3.03198 26.3939C4.82194 28.8775 7.34855 30.7345 10.2533 31.7013C10.9825 31.8281 11.2552 31.3906 11.2552 31.0071C11.2552 30.6615 11.2363 29.5138 11.2363 28.2917C7.57292 28.9669 6.625 27.3992 6.33334 26.5781C6.16854 26.1581 5.45834 24.8646 4.83854 24.5175C4.32813 24.2448 3.59896 23.5696 4.81959 23.5521C5.96875 23.5331 6.78834 24.6094 7.0625 25.0469C8.375 27.2519 10.4721 26.6321 11.3092 26.25C11.4375 25.3021 11.8196 24.6648 12.2396 24.3002C8.99479 23.9356 5.60417 22.6771 5.60417 17.099C5.60417 15.5123 6.16854 14.2013 7.09896 13.179C6.95313 12.8144 6.44271 11.3196 7.24479 9.31438C7.24479 9.31438 8.46542 8.93229 11.2552 10.8106C12.4424 10.4811 13.669 10.3153 14.901 10.3177C16.1406 10.3177 17.3802 10.481 18.5469 10.8092C21.3352 8.91333 22.5573 9.31583 22.5573 9.31583C23.3594 11.321 22.849 12.8158 22.7031 13.1804C23.6321 14.2013 24.1979 15.4948 24.1979 17.099C24.1979 22.696 20.7898 23.9356 17.545 24.3002C18.0729 24.7552 18.5294 25.6302 18.5294 26.9981C18.5294 28.9479 18.5104 30.5156 18.5104 31.0085C18.5104 31.3906 18.7846 31.8456 19.5138 31.6998C22.4086 30.7224 24.9241 28.8619 26.7061 26.38C28.4882 23.8982 29.4471 20.92 29.4479 17.8646C29.4479 9.80729 22.9219 3.28125 14.8646 3.28125Z" fill="#6B7280"/>
</svg>
