<svg width="36" height="36" viewBox="0 0 36 36" fill="none" xmlns="http://www.w3.org/2000/svg">
<path d="M16 33C13.9356 33 11.9911 32.6055 10.1667 31.8167C8.34223 31.0267 6.75334 29.9544 5.40001 28.6C4.04667 27.2455 2.97445 25.6567 2.18334 23.8333C1.39223 22.01 0.997787 20.0655 1.00001 18C1.00001 15.9289 1.39445 13.9828 2.18334 12.1617C2.97334 10.3394 4.04556 8.75222 5.40001 7.4C6.75445 6.04778 8.34334 4.97556 10.1667 4.18333C11.9911 3.39444 13.9356 3 16 3C18.0711 3 20.0172 3.39444 21.8383 4.18333C23.6606 4.97333 25.2483 6.04555 26.6017 7.4C27.955 8.75444 29.0267 10.3417 29.8167 12.1617C30.6056 13.9839 31 15.93 31 18C31 20.0644 30.6056 22.0089 29.8167 23.8333C29.0267 25.6578 27.9544 27.2467 26.6 28.6C25.2456 29.9533 23.6583 31.0255 21.8383 31.8167C20.0183 32.6078 18.0722 33.0022 16 33ZM16 31.3467C16.9778 30.09 17.7844 28.8561 18.42 27.645C19.0544 26.4339 19.5706 25.0783 19.9683 23.5783H12.0317C12.4728 25.1628 12.9995 26.5605 13.6117 27.7717C14.225 28.9828 15.0211 30.1744 16 31.3467ZM13.8783 31.0967C13.1006 30.18 12.3906 29.0467 11.7483 27.6967C11.1061 26.3478 10.6283 24.9744 10.315 23.5767H3.92334C4.8789 25.6489 6.23279 27.3489 7.98501 28.6767C9.73834 30.0033 11.7028 30.81 13.8783 31.0967ZM18.1217 31.0967C20.2972 30.81 22.2617 30.0033 24.015 28.6767C25.7672 27.3489 27.1211 25.6489 28.0767 23.5767H21.6867C21.2644 24.9955 20.7328 26.3794 20.0917 27.7283C19.4494 29.0783 18.7928 30.2022 18.1217 31.0967ZM3.24334 21.9117H9.96834C9.84167 21.2272 9.75278 20.5606 9.70167 19.9117C9.64834 19.2639 9.62167 18.6267 9.62167 18C9.62167 17.3733 9.64779 16.7361 9.70001 16.0883C9.75223 15.4406 9.84112 14.7739 9.96667 14.0883H3.24501C3.0639 14.6661 2.92223 15.2956 2.82001 15.9767C2.71779 16.6567 2.66668 17.3311 2.66668 18C2.66668 18.6689 2.71723 19.3439 2.81834 20.025C2.91945 20.7061 3.06112 21.3344 3.24334 21.91M11.635 21.91H20.365C20.4917 21.2267 20.5806 20.5711 20.6317 19.9433C20.685 19.3167 20.7117 18.6689 20.7117 18C20.7117 17.3311 20.6856 16.6833 20.6333 16.0567C20.5811 15.43 20.4922 14.7744 20.3667 14.09H11.6333C11.5078 14.7733 11.4189 15.4289 11.3667 16.0567C11.3145 16.6833 11.2883 17.3311 11.2883 18C11.2883 18.6689 11.3145 19.3167 11.3667 19.9433C11.4189 20.57 11.5094 21.2255 11.635 21.91ZM22.0333 21.91H28.7567C28.9378 21.3333 29.0794 20.705 29.1817 20.025C29.2828 19.3439 29.3333 18.6689 29.3333 18C29.3333 17.3311 29.2828 16.6561 29.1817 15.975C29.0806 15.2939 28.9389 14.6656 28.7567 14.09H22.0317C22.1583 14.7733 22.2472 15.4394 22.2983 16.0883C22.3517 16.7372 22.3783 17.3744 22.3783 18C22.3783 18.6256 22.3522 19.2628 22.3 19.9117C22.2478 20.5606 22.1589 21.2272 22.0333 21.9117M21.6867 12.4233H28.0767C27.1 10.3078 25.7622 8.60778 24.0633 7.32333C22.3644 6.03889 20.3839 5.22167 18.1217 4.87167C18.8994 5.895 19.5989 7.06555 20.22 8.38333C20.8411 9.7 21.33 11.0467 21.6867 12.4233ZM12.0317 12.4233H19.9683C19.5283 10.8589 18.9856 9.44444 18.34 8.18C17.6944 6.91555 16.9144 5.74 16 4.65333C15.0856 5.73889 14.3056 6.91444 13.66 8.18C13.0145 9.44555 12.4706 10.86 12.0317 12.4233ZM3.92501 12.4233H10.315C10.6717 11.0478 11.1606 9.70111 11.7817 8.38333C12.4028 7.06555 13.1022 5.895 13.88 4.87167C11.5978 5.22278 9.61223 6.045 7.92334 7.33833C6.23445 8.63389 4.90112 10.3283 3.92334 12.4217" fill="#AA0021"/>
<path d="M3.24334 21.9117H9.96834C9.84167 21.2272 9.75278 20.5606 9.70167 19.9117C9.64834 19.2639 9.62167 18.6267 9.62167 18C9.62167 17.3733 9.64779 16.7361 9.70001 16.0883C9.75223 15.4406 9.84112 14.7739 9.96667 14.0883H3.24501C3.0639 14.6661 2.92223 15.2956 2.82001 15.9767C2.71779 16.6567 2.66668 17.3311 2.66668 18C2.66668 18.6689 2.71723 19.3439 2.81834 20.025C2.91945 20.7061 3.06112 21.3344 3.24334 21.91M22.0333 21.91H28.7567C28.9378 21.3333 29.0794 20.705 29.1817 20.025C29.2828 19.3439 29.3333 18.6689 29.3333 18C29.3333 17.3311 29.2828 16.6561 29.1817 15.975C29.0806 15.2939 28.9389 14.6656 28.7567 14.09H22.0317C22.1583 14.7733 22.2472 15.4394 22.2983 16.0883C22.3517 16.7372 22.3783 17.3744 22.3783 18C22.3783 18.6256 22.3522 19.2628 22.3 19.9117C22.2478 20.5606 22.1589 21.2272 22.0333 21.9117M3.92501 12.4233H10.315C10.6717 11.0478 11.1606 9.70111 11.7817 8.38333C12.4028 7.06555 13.1022 5.895 13.88 4.87167C11.5978 5.22278 9.61223 6.045 7.92334 7.33833C6.23445 8.63389 4.90112 10.3283 3.92334 12.4217M16 33C13.9356 33 11.9911 32.6055 10.1667 31.8167C8.34223 31.0267 6.75334 29.9544 5.40001 28.6C4.04667 27.2455 2.97445 25.6567 2.18334 23.8333C1.39223 22.01 0.997787 20.0656 1.00001 18C1.00001 15.9289 1.39445 13.9828 2.18334 12.1617C2.97334 10.3394 4.04556 8.75222 5.40001 7.4C6.75445 6.04778 8.34334 4.97556 10.1667 4.18333C11.9911 3.39444 13.9356 3 16 3C18.0711 3 20.0172 3.39444 21.8383 4.18333C23.6606 4.97333 25.2483 6.04555 26.6017 7.4C27.955 8.75444 29.0267 10.3417 29.8167 12.1617C30.6056 13.9839 31 15.93 31 18C31 20.0644 30.6056 22.0089 29.8167 23.8333C29.0267 25.6578 27.9544 27.2467 26.6 28.6C25.2456 29.9533 23.6583 31.0255 21.8383 31.8167C20.0183 32.6078 18.0722 33.0022 16 33ZM16 31.3467C16.9778 30.09 17.7844 28.8561 18.42 27.645C19.0544 26.4339 19.5706 25.0783 19.9683 23.5783H12.0317C12.4728 25.1628 12.9995 26.5605 13.6117 27.7717C14.225 28.9828 15.0211 30.1744 16 31.3467ZM13.8783 31.0967C13.1006 30.18 12.3906 29.0467 11.7483 27.6967C11.1061 26.3478 10.6283 24.9744 10.315 23.5767H3.92334C4.8789 25.6489 6.23279 27.3489 7.98501 28.6767C9.73834 30.0033 11.7028 30.81 13.8783 31.0967ZM18.1217 31.0967C20.2972 30.81 22.2617 30.0033 24.015 28.6767C25.7672 27.3489 27.1211 25.6489 28.0767 23.5767H21.6867C21.2644 24.9955 20.7328 26.3794 20.0917 27.7283C19.4494 29.0783 18.7928 30.2022 18.1217 31.0967ZM11.635 21.91H20.365C20.4917 21.2267 20.5806 20.5711 20.6317 19.9433C20.685 19.3167 20.7117 18.6689 20.7117 18C20.7117 17.3311 20.6856 16.6833 20.6333 16.0567C20.5811 15.43 20.4922 14.7744 20.3667 14.09H11.6333C11.5078 14.7733 11.4189 15.4289 11.3667 16.0567C11.3145 16.6833 11.2883 17.3311 11.2883 18C11.2883 18.6689 11.3145 19.3167 11.3667 19.9433C11.4189 20.57 11.5094 21.2255 11.635 21.91ZM21.6867 12.4233H28.0767C27.1 10.3078 25.7622 8.60778 24.0633 7.32333C22.3644 6.03889 20.3839 5.22167 18.1217 4.87167C18.8994 5.895 19.5989 7.06555 20.22 8.38333C20.8411 9.7 21.33 11.0467 21.6867 12.4233ZM12.0317 12.4233H19.9683C19.5283 10.8589 18.9856 9.44444 18.34 8.18C17.6944 6.91555 16.9144 5.74 16 4.65333C15.0856 5.73889 14.3056 6.91444 13.66 8.18C13.0144 9.44555 12.4706 10.86 12.0317 12.4233Z" stroke="#AA0021" stroke-width="0.5"/>
</svg>
