<svg width="27" height="28" viewBox="0 0 27 28" fill="none" xmlns="http://www.w3.org/2000/svg">
<path d="M22.3635 23.2444H18.4771V17.1529C18.4771 15.7004 18.4479 13.8308 16.45 13.8308C14.4244 13.8308 14.1152 15.4117 14.1152 17.0465V23.2444H10.2273V10.7188H13.9606V12.425H14.0117C14.5337 11.4421 15.8025 10.4023 17.6983 10.4023C21.6358 10.4023 22.365 12.9952 22.365 16.3683V23.2444H22.3635ZM5.83771 9.00521C5.54102 9.00559 5.24717 8.94741 4.97301 8.83401C4.69885 8.7206 4.44977 8.5542 4.24004 8.34434C4.03032 8.13448 3.86408 7.88529 3.75085 7.61106C3.63762 7.33683 3.57963 7.04294 3.58021 6.74625C3.5805 6.29976 3.71318 5.86338 3.96148 5.4923C4.20977 5.12121 4.56253 4.83209 4.97515 4.66149C5.38776 4.49089 5.8417 4.44648 6.27955 4.53387C6.71741 4.62126 7.11952 4.83653 7.43503 5.15245C7.75055 5.46837 7.96529 5.87075 8.05211 6.30872C8.13894 6.74669 8.09394 7.20057 7.92281 7.61296C7.75168 8.02536 7.4621 8.37774 7.09069 8.62556C6.71929 8.87338 6.28274 9.0055 5.83625 9.00521H5.83771ZM7.78604 23.2444H3.88792V10.7188H7.7875V23.2444H7.78604ZM24.3104 0.875H1.93813C0.864792 0.875 0 1.72083 0 2.76646V25.2335C0 26.2792 0.86625 27.125 1.93667 27.125H24.3046C25.375 27.125 26.25 26.2792 26.25 25.2335V2.76646C26.25 1.72083 25.375 0.875 24.3046 0.875H24.309H24.3104Z" fill="#6B7280"/>
</svg>
