<svg width="40" height="40" viewBox="0 0 40 40" fill="none" xmlns="http://www.w3.org/2000/svg">
<rect width="40" height="40" rx="20" fill="#AA0021"/>
<path d="M27.25 17.9375C27.25 15.9981 26.4796 14.1381 25.1082 12.7668C23.7369 11.3954 21.8769 10.625 19.9375 10.625C17.9981 10.625 16.1381 11.3954 14.7668 12.7668C13.3954 14.1381 12.625 15.9981 12.625 17.9375C12.625 20.9373 15.0251 24.847 19.9375 29.5303C24.8499 24.847 27.25 20.9373 27.25 17.9375ZM19.9375 31.75C13.9786 26.3339 11 21.7286 11 17.9375C11 15.5671 11.9416 13.2938 13.6177 11.6177C15.2938 9.94163 17.5671 9 19.9375 9C22.3079 9 24.5812 9.94163 26.2573 11.6177C27.9334 13.2938 28.875 15.5671 28.875 17.9375C28.875 21.7286 25.8964 26.3339 19.9375 31.75Z" fill="white"/>
<path d="M20 20.375C20.6465 20.375 21.2665 20.1108 21.7236 19.6405C22.1807 19.1702 22.4375 18.5323 22.4375 17.8672C22.4375 17.2021 22.1807 16.5642 21.7236 16.0939C21.2665 15.6236 20.6465 15.3594 20 15.3594C19.3535 15.3594 18.7335 15.6236 18.2764 16.0939C17.8193 16.5642 17.5625 17.2021 17.5625 17.8672C17.5625 18.5323 17.8193 19.1702 18.2764 19.6405C18.7335 20.1108 19.3535 20.375 20 20.375ZM20 22.0469C18.9226 22.0469 17.8892 21.6065 17.1274 20.8227C16.3655 20.0388 15.9375 18.9757 15.9375 17.8672C15.9375 16.7587 16.3655 15.6955 17.1274 14.9117C17.8892 14.1279 18.9226 13.6875 20 13.6875C21.0774 13.6875 22.1108 14.1279 22.8726 14.9117C23.6345 15.6955 24.0625 16.7587 24.0625 17.8672C24.0625 18.9757 23.6345 20.0388 22.8726 20.8227C22.1108 21.6065 21.0774 22.0469 20 22.0469Z" fill="white"/>
</svg>
