<svg width="40" height="40" viewBox="0 0 40 40" fill="none" xmlns="http://www.w3.org/2000/svg">
<rect width="40" height="40" rx="20" fill="#AA0021"/>
<g clip-path="url(#clip0_1977_812)">
<path d="M28.8211 28.1431H11.1783C10.0519 28.1431 9.14258 27.2339 9.14258 26.1074V13.8931C9.14258 12.7667 10.0519 11.8574 11.1783 11.8574H28.8211C29.9476 11.8574 30.8569 12.7667 30.8569 13.8931V26.1074C30.8569 27.2339 29.9476 28.1431 28.8211 28.1431ZM11.1783 13.2146C10.7983 13.2146 10.4997 13.5131 10.4997 13.8931V26.1074C10.4997 26.4874 10.7983 26.786 11.1783 26.786H28.8211C29.2011 26.786 29.4997 26.4874 29.4997 26.1074V13.8931C29.4997 13.5131 29.2011 13.2146 28.8211 13.2146H11.1783Z" fill="white"/>
<path d="M19.9999 22.661C19.0499 22.661 18.1814 22.281 17.5299 21.5888L10.4049 14.016C10.1471 13.7445 10.1606 13.3102 10.4321 13.0524C10.7035 12.7945 11.1378 12.8081 11.3956 13.0795L18.5206 20.6524C19.2942 21.4802 20.7056 21.4802 21.4792 20.6524L28.6042 13.0931C28.8621 12.8217 29.2964 12.8081 29.5678 13.066C29.8392 13.3238 29.8528 13.7581 29.5949 14.0295L22.4699 21.6024C21.8185 22.2945 20.9499 22.6745 19.9999 22.6745V22.661Z" fill="white"/>
</g>
<defs>
<clipPath id="clip0_1977_812">
<rect width="21.7143" height="19" fill="white" transform="translate(9.14258 10.5)"/>
</clipPath>
</defs>
</svg>
