<svg width="40" height="40" viewBox="0 0 40 40" fill="none" xmlns="http://www.w3.org/2000/svg">
<rect width="40" height="40" rx="20" fill="#AA0021"/>
<path fill-rule="evenodd" clip-rule="evenodd" d="M11.7375 10.8746C13.0792 9.5406 15.2885 9.77763 16.4119 11.2792L17.8032 13.1357C18.7183 14.3573 18.6367 16.0639 17.5508 17.1432L17.2884 17.4056C17.2586 17.5158 17.2556 17.6314 17.2796 17.743C17.349 18.1928 17.725 19.1453 19.2993 20.7108C20.8736 22.2763 21.8328 22.6512 22.2892 22.7217C22.4042 22.7448 22.523 22.7415 22.6365 22.7118L23.0863 22.2642C24.052 21.305 25.5338 21.1253 26.7288 21.7747L28.8345 22.9213C30.6393 23.9003 31.0946 26.3521 29.6173 27.8217L28.0507 29.3784C27.5568 29.869 26.8931 30.278 26.0839 30.3541C24.0884 30.5404 19.4393 30.3023 14.5521 25.4437C9.99115 20.9082 9.11579 16.9525 9.00444 15.0033C8.94932 14.0177 9.41456 13.1843 10.0077 12.5955L11.7375 10.8746ZM15.089 12.2703C14.53 11.5239 13.4893 11.4644 12.9028 12.0476L11.1719 13.7675C10.8081 14.1291 10.6339 14.5282 10.6559 14.9096C10.7441 16.4586 11.4497 20.0273 15.7185 24.2718C20.1967 28.7236 24.3321 28.857 25.9306 28.707C26.257 28.6773 26.5811 28.5075 26.8843 28.2065L28.4498 26.6487C29.087 26.0159 28.947 24.8627 28.0452 24.3732L25.9395 23.2277C25.3574 22.9124 24.676 23.0161 24.2527 23.4372L23.7511 23.9366L23.1668 23.3501C23.7511 23.9366 23.75 23.9377 23.7489 23.9377L23.7478 23.9399L23.7444 23.9433L23.7367 23.9499L23.7202 23.9653C23.6737 24.0085 23.6235 24.0476 23.5703 24.0822C23.4821 24.1406 23.3652 24.2056 23.2186 24.2597C22.9209 24.371 22.5262 24.4305 22.0389 24.3556C21.0831 24.2089 19.8164 23.5574 18.1329 21.8838C16.4505 20.2103 15.7934 18.9513 15.6457 17.9965C15.5696 17.5092 15.6303 17.1146 15.7427 16.8169C15.8046 16.6494 15.8932 16.493 16.0051 16.3539L16.0404 16.3153L16.0558 16.2987L16.0624 16.2921L16.0658 16.2888L16.068 16.2866L16.3855 15.9713C16.8573 15.5005 16.9235 14.7211 16.4792 14.1269L15.089 12.2703Z" fill="white"/>
</svg>
