<svg width="60" height="60" viewBox="0 0 60 60" fill="none" xmlns="http://www.w3.org/2000/svg">
<rect width="60.0048" height="60" rx="30" fill="white"/>
<path d="M48.0048 26.0996C48.0056 25.6109 47.8769 25.1307 47.6319 24.7078C47.3868 24.2849 47.0342 23.9345 46.6098 23.6921L31.4448 14.6921C31.0077 14.4371 30.5108 14.3027 30.0048 14.3027C29.4988 14.3027 29.0019 14.4371 28.5648 14.6921L13.3773 23.6921C12.9576 23.9411 12.6099 24.2951 12.3685 24.7191C12.127 25.1432 12 25.6228 12 26.1108C12 26.5989 12.127 27.0785 12.3685 27.5025C12.6099 27.9266 12.9576 28.2806 13.3773 28.5296L17.6973 31.0496V37.3721C17.6999 37.8662 17.8296 38.3514 18.0739 38.7809C18.3182 39.2104 18.6689 39.5698 19.0923 39.8246L28.6548 45.3371C29.0818 45.5735 29.5618 45.6975 30.0498 45.6975C30.5378 45.6975 31.0178 45.5735 31.4448 45.3371L41.0073 39.8246C41.4307 39.5698 41.7814 39.2104 42.0257 38.7809C42.27 38.3514 42.3997 37.8662 42.4023 37.3721V30.9821L45.1923 29.3396V35.4596H48.0048V26.0996ZM39.6123 37.3496L30.0048 42.8846L20.5098 37.3721V32.7146L28.5648 37.5071C29.0033 37.7577 29.4997 37.8895 30.0048 37.8895C30.5099 37.8895 31.0062 37.7577 31.4448 37.5071L39.5898 32.6471L39.6123 37.3496ZM30.0048 35.0771L14.8173 26.0771L30.0048 17.0546L45.1923 26.0546L30.0048 35.0771Z" fill="#AA0021"/>
</svg>
