<svg width="32" height="32" viewBox="0 0 32 32" fill="none" xmlns="http://www.w3.org/2000/svg">
<g clip-path="url(#clip0_1976_749)">
<path d="M28.0003 19V6C28.0003 5.46957 27.7895 4.96086 27.4145 4.58579C27.0394 4.21071 26.5307 4 26.0003 4H6.00025C5.46982 4 4.96111 4.21071 4.58604 4.58579C4.21097 4.96086 4.00025 5.46957 4.00025 6V19M28.0003 19H4.00025M28.0003 19L30.8269 25.188C30.9622 25.4924 31.0192 25.8258 30.9929 26.1579C30.9666 26.4899 30.8578 26.8102 30.6764 27.0895C30.4949 27.3688 30.2466 27.5984 29.9539 27.7574C29.6611 27.9164 29.3334 27.9998 29.0003 28H3.00025C2.66704 28 2.33909 27.9168 2.0462 27.7579C1.75332 27.599 1.50478 27.3694 1.32317 27.0901C1.14155 26.8107 1.03262 26.4904 1.00627 26.1582C0.979911 25.826 1.03697 25.4925 1.17225 25.188L4.00025 19M14.0003 24H18.0003" stroke="#AA0021" stroke-width="2.5" stroke-linecap="round" stroke-linejoin="round"/>
</g>
<defs>
<clipPath id="clip0_1976_749">
<rect width="32" height="32" fill="white"/>
</clipPath>
</defs>
</svg>
