<svg width="194" height="36" viewBox="0 0 194 36" fill="none" xmlns="http://www.w3.org/2000/svg">
<path d="M11.84 31.96C9.41333 31.96 7.41333 31.6267 5.84 30.96C4.26667 30.32 3.10667 29.4267 2.36 28.28C1.61333 27.1333 1.24 25.84 1.24 24.4C1.24 22.7467 1.69333 20.96 2.6 19.04C3.50667 17.0933 4.81333 15.1867 6.52 13.32C6.52 13.32 6.53333 13.3067 6.56 13.28C5.73333 12.9867 4.96 12.6533 4.24 12.28C3.52 11.9067 2.88 11.48 2.32 11C1.68 10.4667 1.2 9.88 0.88 9.24C0.56 8.6 0.4 7.98667 0.4 7.4C0.4 6.54667 0.72 5.82667 1.36 5.24C2 4.62667 2.97333 4.32 4.28 4.32C4.70667 4.32 5.16 4.36 5.64 4.44C6.12 4.49333 6.62667 4.6 7.16 4.76C7.53333 4.86666 7.72 5.09333 7.72 5.44C7.72 5.62667 7.61333 5.81333 7.4 6C7.21333 6.16 6.97333 6.18667 6.68 6.08C5.8 5.84 5.04 5.72 4.4 5.72C3.6 5.72 2.98667 5.88 2.56 6.2C2.16 6.52 1.96 6.92 1.96 7.4C1.96 8.12 2.41333 8.94667 3.32 9.88C4.25333 10.7867 5.69333 11.5467 7.64 12.16C9.24 10.5867 11.0667 9.17333 13.12 7.92C15.2 6.64 17.44 5.62667 19.84 4.88C22.24 4.13333 24.7467 3.76 27.36 3.76C29.8933 3.76 31.7867 4.18667 33.04 5.04C34.2933 5.89333 34.92 6.88 34.92 8C34.92 9.06667 34.36 10.1467 33.24 11.24C32.1467 12.3067 30.5067 13.12 28.32 13.68C26.9333 14.0267 25.3067 14.32 23.44 14.56C21.6 14.7733 19.6933 14.88 17.72 14.88C16.0667 14.88 14.4133 14.8 12.76 14.64C11.1333 14.4533 9.58667 14.16 8.12 13.76C6.49333 15.4933 5.2 17.2933 4.24 19.16C3.30667 21 2.84 22.72 2.84 24.32C2.84 26.1067 3.53333 27.6 4.92 28.8C6.30667 30 8.57333 30.6 11.72 30.6C12.12 30.6 12.5467 30.5733 13 30.52C13.4533 30.4933 13.92 30.4667 14.4 30.44C16.0533 30.2533 17.8267 29.7867 19.72 29.04C21.64 28.32 23.5333 27.3467 25.4 26.12C27.2933 24.8667 29.0267 23.4267 30.6 21.8C30.7867 21.6133 30.9733 21.52 31.16 21.52C31.3467 21.52 31.4933 21.5867 31.6 21.72C31.7333 21.8533 31.8 22.0133 31.8 22.2C31.8 22.3867 31.72 22.56 31.56 22.72C30.04 24.4267 28.28 25.9333 26.28 27.24C24.3067 28.5733 22.2933 29.6267 20.24 30.4C18.1867 31.2 16.2667 31.68 14.48 31.84C13.5733 31.92 12.6933 31.96 11.84 31.96ZM9.28 12.64C10.56 12.9067 11.88 13.1067 13.24 13.24C14.6267 13.3733 16.0133 13.44 17.4 13.44C19.5333 13.44 21.5333 13.32 23.4 13.08C25.2933 12.84 26.7733 12.5733 27.84 12.28C29.7333 11.8 31.12 11.1867 32 10.44C32.9067 9.69333 33.36 8.96 33.36 8.24C33.36 7.41333 32.84 6.70667 31.8 6.12C30.76 5.50667 29.28 5.2 27.36 5.2C24.9867 5.2 22.7067 5.53333 20.52 6.2C18.3333 6.84 16.28 7.72 14.36 8.84C12.4667 9.96 10.7733 11.2267 9.28 12.64ZM32.4769 27.76C31.5169 27.76 30.8635 27.4933 30.5169 26.96C30.1702 26.4 29.9969 25.7467 29.9969 25C29.9969 24.3067 30.0769 23.6133 30.2369 22.92C30.4235 22.2 30.5969 21.6 30.7569 21.12C30.7835 21.0133 30.8235 20.9067 30.8769 20.8C30.8235 20.72 30.7969 20.6133 30.7969 20.48C30.7969 20.0267 30.9569 19.7467 31.2769 19.64C31.7569 18.4133 32.3169 17.1733 32.9569 15.92C33.5969 14.64 34.2502 13.4533 34.9169 12.36C35.5835 11.2667 36.1702 10.3467 36.6769 9.6C37.0769 9.04 37.5569 8.37333 38.1169 7.6C38.7035 6.8 39.3569 6.01333 40.0769 5.24C40.8235 4.46667 41.6235 3.82667 42.4769 3.32C43.3302 2.78667 44.2102 2.52 45.1169 2.52C45.8635 2.52 46.3835 2.68 46.6769 3C46.9969 3.32 47.1569 3.74667 47.1569 4.28C47.1569 4.78667 47.0369 5.37333 46.7969 6.04C46.5569 6.70667 46.2369 7.4 45.8369 8.12C45.2769 9.13333 44.5035 10.24 43.5169 11.44C42.5302 12.64 41.4369 13.8267 40.2369 15C39.0369 16.1733 37.7835 17.24 36.4769 18.2C35.1702 19.16 33.8902 19.9333 32.6369 20.52C32.4769 21.0267 32.2635 21.6933 31.9969 22.52C31.7302 23.32 31.5969 24.0533 31.5969 24.72C31.5969 25.1733 31.6902 25.56 31.8769 25.88C32.0635 26.1733 32.4102 26.32 32.9169 26.32C33.2902 26.32 33.7569 26.2133 34.3169 26C34.9035 25.76 35.5702 25.4 36.3169 24.92C37.1702 24.36 37.9835 23.6933 38.7569 22.92C39.5302 22.1467 40.2235 21.3867 40.8369 20.64C40.9702 20.48 41.0902 20.4 41.1969 20.4C41.3302 20.4 41.4502 20.4933 41.5569 20.68C41.6902 20.84 41.7569 21.0267 41.7569 21.24C41.7569 21.5067 41.6902 21.72 41.5569 21.88C41.1569 22.44 40.6102 23.0533 39.9169 23.72C39.2502 24.3867 38.6502 24.92 38.1169 25.32C37.8502 25.5067 37.5302 25.72 37.1569 25.96C36.7835 26.2 36.1702 26.5467 35.3169 27C34.8902 27.2133 34.4235 27.3867 33.9169 27.52C33.4369 27.68 32.9569 27.76 32.4769 27.76ZM37.2769 11.6C36.4769 12.7733 35.7569 13.96 35.1169 15.16C34.4769 16.36 33.9169 17.4933 33.4369 18.56C34.8769 17.7067 36.3169 16.64 37.7569 15.36C39.1969 14.0533 40.5169 12.68 41.7169 11.24C42.9169 9.8 43.8769 8.44 44.5969 7.16C45.2369 6.04 45.5569 5.18667 45.5569 4.6C45.5569 4.14667 45.3435 3.92 44.9169 3.92C44.2769 3.92 43.5835 4.21333 42.8369 4.8C42.0902 5.38667 41.3569 6.12 40.6369 7C39.9169 7.85333 39.2635 8.70667 38.6769 9.56C38.0902 10.4133 37.6235 11.0933 37.2769 11.6ZM40.7541 27.2C40.0074 27.2 39.4474 26.9867 39.0741 26.56C38.7274 26.1067 38.5541 25.5467 38.5541 24.88C38.5541 24.1333 38.7674 23.2667 39.1941 22.28C39.6474 21.2667 40.2341 20.2267 40.9541 19.16C41.6741 18.0933 42.4607 17.1067 43.3141 16.2C44.1941 15.2667 45.0741 14.52 45.9541 13.96C46.8341 13.3733 47.6474 13.08 48.3941 13.08C48.9007 13.08 49.3941 13.16 49.8741 13.32C50.3541 13.4533 50.7407 13.7333 51.0341 14.16C51.3541 14.5867 51.5141 15.2133 51.5141 16.04C51.5141 16.3333 51.4341 16.5467 51.2741 16.68C51.1141 16.8133 50.9674 16.88 50.8341 16.88C50.5407 16.88 50.3941 16.7733 50.3941 16.56C50.2607 15.7067 49.9807 15.1467 49.5541 14.88C49.1541 14.6133 48.7674 14.48 48.3941 14.48C47.8607 14.48 47.2341 14.7467 46.5141 15.28C45.7941 15.8133 45.0607 16.4933 44.3141 17.32C43.5674 18.1467 42.8607 19.04 42.1941 20C41.5541 20.9333 41.0341 21.84 40.6341 22.72C40.2341 23.5733 40.0341 24.28 40.0341 24.84C40.0341 25.1067 40.0741 25.3467 40.1541 25.56C40.2607 25.7733 40.4207 25.88 40.6341 25.88C41.0341 25.88 41.5541 25.6667 42.1941 25.24C42.8341 24.8133 43.5141 24.2667 44.2341 23.6C44.9807 22.9067 45.7141 22.1867 46.4341 21.44C47.1541 20.6933 47.8074 19.9867 48.3941 19.32C48.9807 18.6533 49.4341 18.12 49.7541 17.72C49.9141 17.48 50.1141 17.36 50.3541 17.36C50.5407 17.36 50.7141 17.4267 50.8741 17.56C51.0341 17.6933 51.1141 17.8667 51.1141 18.08C51.1141 18.1867 51.0741 18.3067 50.9941 18.44C50.8074 18.7333 50.5807 19.1467 50.3141 19.68C50.0741 20.2133 49.8207 20.7867 49.5541 21.4C49.3141 22.0133 49.1007 22.5867 48.9141 23.12C48.7541 23.6267 48.6741 24.0133 48.6741 24.28C48.6741 24.5467 48.7674 24.68 48.9541 24.68C49.0874 24.68 49.2474 24.6133 49.4341 24.48C49.6474 24.3467 49.8341 24.2267 49.9941 24.12C50.6341 23.5867 51.2474 23.0267 51.8341 22.44C52.4207 21.8267 52.9541 21.2533 53.4341 20.72C53.5407 20.5867 53.6741 20.52 53.8341 20.52C53.9674 20.52 54.0874 20.6 54.1941 20.76C54.3274 20.8933 54.3941 21.0667 54.3941 21.28C54.3941 21.52 54.3274 21.72 54.1941 21.88C53.7674 22.44 53.2074 23.0667 52.5141 23.76C51.8207 24.4267 51.2074 24.96 50.6741 25.36C50.3274 25.6 49.9141 25.84 49.4341 26.08C48.9807 26.2933 48.5407 26.4 48.1141 26.4C47.7941 26.4 47.5274 26.3067 47.3141 26.12C47.1007 25.9067 46.9941 25.5467 46.9941 25.04C46.9941 24.64 47.0607 24.1867 47.1941 23.68C47.3274 23.1733 47.4874 22.6533 47.6741 22.12C46.9274 22.92 46.1274 23.7067 45.2741 24.48C44.4207 25.2533 43.5941 25.9067 42.7941 26.44C42.0207 26.9467 41.3407 27.2 40.7541 27.2ZM59.1934 26.76C58.7134 26.76 58.3134 26.6267 57.9934 26.36C57.7001 26.0933 57.5534 25.72 57.5534 25.24C57.5534 24.2267 57.8068 23.2133 58.3134 22.2C58.8201 21.16 59.3934 20.1467 60.0334 19.16C60.7001 18.1467 61.2468 17.2133 61.6734 16.36C61.2468 16.6533 60.7668 16.8667 60.2334 17C59.7001 17.1333 59.1801 17.2 58.6734 17.2C57.9534 17.2 57.3934 17.1067 56.9934 16.92C56.4868 17.8 55.9001 18.6933 55.2334 19.6C54.5668 20.48 53.9134 21.28 53.2734 22C52.6601 22.72 52.1401 23.2667 51.7134 23.64C51.5268 23.8 51.3401 23.88 51.1534 23.88C50.9668 23.88 50.8068 23.8133 50.6734 23.68C50.5401 23.5467 50.4734 23.4 50.4734 23.24C50.4734 23.1067 50.5268 22.9867 50.6334 22.88C51.1134 22.3733 51.6734 21.72 52.3134 20.92C52.9801 20.12 53.6334 19.2667 54.2734 18.36C54.9401 17.4533 55.4868 16.6133 55.9134 15.84C55.8868 15.3067 55.9534 14.7067 56.1134 14.04C56.3001 13.3733 56.5401 12.7333 56.8334 12.12C57.1534 11.5067 57.5001 11 57.8734 10.6C58.2468 10.1733 58.6334 9.96 59.0334 9.96C59.4601 9.96 59.6734 10.2133 59.6734 10.72C59.6734 11.1467 59.5401 11.6933 59.2734 12.36C59.0334 13.0267 58.7401 13.68 58.3934 14.32C58.0734 14.9333 57.7934 15.44 57.5534 15.84C57.9001 15.9467 58.2601 16 58.6334 16C59.2734 16 59.8334 15.88 60.3134 15.64C60.7934 15.3733 61.2201 15.12 61.5934 14.88C61.9668 14.6133 62.2868 14.48 62.5534 14.48C62.9001 14.48 63.1268 14.5733 63.2334 14.76C63.3668 14.92 63.4334 15.1333 63.4334 15.4C63.4334 15.9067 63.3001 16.4667 63.0334 17.08C62.7668 17.6667 62.5668 18.04 62.4334 18.2C62.2468 18.4933 61.9668 18.9333 61.5934 19.52C61.2201 20.08 60.8468 20.68 60.4734 21.32C60.1001 21.96 59.7934 22.5733 59.5534 23.16C59.4468 23.4533 59.3401 23.76 59.2334 24.08C59.1534 24.3733 59.1134 24.6267 59.1134 24.84C59.1134 25.1867 59.2601 25.36 59.5534 25.36C59.8201 25.36 60.2068 25.2267 60.7134 24.96C61.3534 24.6133 61.9401 24.1733 62.4734 23.64C63.0334 23.08 63.5134 22.6 63.9134 22.2C63.9401 22.1733 64.0601 22.04 64.2734 21.8C64.5134 21.56 64.7401 21.32 64.9534 21.08C65.1934 20.84 65.3134 20.72 65.3134 20.72C65.4201 20.5867 65.5534 20.52 65.7134 20.52C65.8468 20.52 65.9668 20.6 66.0734 20.76C66.2068 20.8933 66.2734 21.0667 66.2734 21.28C66.2734 21.52 66.2068 21.72 66.0734 21.88C65.6734 22.44 65.1268 23.0533 64.4334 23.72C63.7401 24.3867 63.1268 24.9333 62.5934 25.36C62.0334 25.7867 61.4601 26.1333 60.8734 26.4C60.3134 26.64 59.7534 26.76 59.1934 26.76ZM65.2478 27.2C64.5011 27.2 63.9411 26.9867 63.5678 26.56C63.2211 26.1067 63.0478 25.5467 63.0478 24.88C63.0478 24.1333 63.2611 23.2667 63.6878 22.28C64.1411 21.2667 64.7278 20.2267 65.4478 19.16C66.1678 18.0933 66.9545 17.1067 67.8078 16.2C68.6878 15.2667 69.5678 14.52 70.4478 13.96C71.3278 13.3733 72.1411 13.08 72.8878 13.08C73.3945 13.08 73.8878 13.16 74.3678 13.32C74.8478 13.4533 75.2345 13.7333 75.5278 14.16C75.8478 14.5867 76.0078 15.2133 76.0078 16.04C76.0078 16.3333 75.9278 16.5467 75.7678 16.68C75.6078 16.8133 75.4611 16.88 75.3278 16.88C75.0345 16.88 74.8878 16.7733 74.8878 16.56C74.7545 15.7067 74.4745 15.1467 74.0478 14.88C73.6478 14.6133 73.2611 14.48 72.8878 14.48C72.3545 14.48 71.7278 14.7467 71.0078 15.28C70.2878 15.8133 69.5545 16.4933 68.8078 17.32C68.0611 18.1467 67.3545 19.04 66.6878 20C66.0478 20.9333 65.5278 21.84 65.1278 22.72C64.7278 23.5733 64.5278 24.28 64.5278 24.84C64.5278 25.1067 64.5678 25.3467 64.6478 25.56C64.7545 25.7733 64.9145 25.88 65.1278 25.88C65.5278 25.88 66.0478 25.6667 66.6878 25.24C67.3278 24.8133 68.0078 24.2667 68.7278 23.6C69.4745 22.9067 70.2078 22.1867 70.9278 21.44C71.6478 20.6933 72.3011 19.9867 72.8878 19.32C73.4745 18.6533 73.9278 18.12 74.2478 17.72C74.4078 17.48 74.6078 17.36 74.8478 17.36C75.0345 17.36 75.2078 17.4267 75.3678 17.56C75.5278 17.6933 75.6078 17.8667 75.6078 18.08C75.6078 18.1867 75.5678 18.3067 75.4878 18.44C75.3011 18.7333 75.0745 19.1467 74.8078 19.68C74.5678 20.2133 74.3145 20.7867 74.0478 21.4C73.8078 22.0133 73.5945 22.5867 73.4078 23.12C73.2478 23.6267 73.1678 24.0133 73.1678 24.28C73.1678 24.5467 73.2611 24.68 73.4478 24.68C73.5811 24.68 73.7411 24.6133 73.9278 24.48C74.1411 24.3467 74.3278 24.2267 74.4878 24.12C75.1278 23.5867 75.7411 23.0267 76.3278 22.44C76.9145 21.8267 77.4478 21.2533 77.9278 20.72C78.0345 20.5867 78.1678 20.52 78.3278 20.52C78.4611 20.52 78.5811 20.6 78.6878 20.76C78.8211 20.8933 78.8878 21.0667 78.8878 21.28C78.8878 21.52 78.8211 21.72 78.6878 21.88C78.2611 22.44 77.7011 23.0667 77.0078 23.76C76.3145 24.4267 75.7011 24.96 75.1678 25.36C74.8211 25.6 74.4078 25.84 73.9278 26.08C73.4745 26.2933 73.0345 26.4 72.6078 26.4C72.2878 26.4 72.0211 26.3067 71.8078 26.12C71.5945 25.9067 71.4878 25.5467 71.4878 25.04C71.4878 24.64 71.5545 24.1867 71.6878 23.68C71.8211 23.1733 71.9811 22.6533 72.1678 22.12C71.4211 22.92 70.6211 23.7067 69.7678 24.48C68.9145 25.2533 68.0878 25.9067 67.2878 26.44C66.5145 26.9467 65.8345 27.2 65.2478 27.2ZM120.295 35.28C119.468 35.28 118.748 35.0133 118.135 34.48C117.522 33.9467 117.215 33.08 117.215 31.88C117.215 30.7333 117.415 29.44 117.815 28C118.242 26.5867 118.802 25.0933 119.495 23.52C120.215 21.9467 120.988 20.3733 121.815 18.8C122.695 17.0933 123.602 15.4533 124.535 13.88C125.468 12.28 126.242 10.88 126.855 9.68C127.228 8.98667 127.522 8.38667 127.735 7.88C127.948 7.37333 128.055 6.97333 128.055 6.68C128.055 6.28 127.842 6.08 127.415 6.08C127.068 6.08 126.495 6.24 125.695 6.56C125.082 6.82666 124.455 7.16 123.815 7.56C123.175 7.96 122.615 8.36 122.135 8.76C119.255 11.16 116.655 13.8933 114.335 16.96C112.042 20.0267 109.895 23.1067 107.895 26.2C107.735 26.44 107.535 26.56 107.295 26.56C107.108 26.56 106.935 26.4933 106.775 26.36C106.642 26.2267 106.575 26.0667 106.575 25.88C106.575 25.7467 106.615 25.6267 106.695 25.52C108.162 23.1467 109.415 20.8533 110.455 18.64C111.522 16.4267 112.508 13.9867 113.415 11.32C113.708 10.52 113.908 9.82667 114.015 9.24C114.122 8.62667 114.175 8.10667 114.175 7.68C114.175 6.61333 113.815 6.08 113.095 6.08C112.935 6.08 112.748 6.12 112.535 6.2C111.735 6.44 110.882 6.98667 109.975 7.84C109.068 8.66667 108.122 9.70667 107.135 10.96C106.175 12.1867 105.188 13.5333 104.175 15C103.162 16.44 102.148 17.9067 101.135 19.4C100.922 19.72 100.628 20.1733 100.255 20.76C99.9083 21.3467 99.535 21.9867 99.135 22.68C98.735 23.3733 98.3483 24.04 97.975 24.68C97.6017 25.2933 97.295 25.8 97.055 26.2C96.8417 26.6 96.735 26.8 96.735 26.8C96.6017 27.04 96.3883 27.16 96.095 27.16C95.9083 27.16 95.7483 27.1067 95.615 27C95.4817 26.8667 95.415 26.72 95.415 26.56C95.415 26.4267 95.455 26.3067 95.535 26.2C95.535 26.2 95.6683 25.96 95.935 25.48C96.2283 24.9733 96.6017 24.3067 97.055 23.48C97.5083 22.6533 98.0017 21.76 98.535 20.8C99.0683 19.84 99.5883 18.88 100.095 17.92C100.628 16.96 101.095 16.0933 101.495 15.32C102.642 13.1067 103.442 11.2267 103.895 9.68C104.375 8.13333 104.615 6.84 104.615 5.8C104.615 4.44 104.308 3.48 103.695 2.92C103.082 2.36 102.388 2.06667 101.615 2.04C99.8817 1.96 98.2017 2.26667 96.575 2.96C94.975 3.62667 93.4817 4.54667 92.095 5.72C90.735 6.89333 89.535 8.18667 88.495 9.6C87.455 11.0133 86.6417 12.44 86.055 13.88C85.495 15.2933 85.215 16.5867 85.215 17.76C85.215 18.9067 85.5483 19.8533 86.215 20.6C86.8817 21.3467 87.9483 21.72 89.415 21.72C90.455 21.72 91.3883 21.48 92.215 21C93.0417 20.52 93.7483 19.9067 94.335 19.16C94.9217 18.4133 95.375 17.6267 95.695 16.8C96.015 15.9733 96.175 15.2133 96.175 14.52C96.175 13.9333 96.0417 13.44 95.775 13.04C95.535 12.64 95.1483 12.4267 94.615 12.4C94.4283 12.4 94.2817 12.3467 94.175 12.24C94.095 12.1067 94.055 11.9733 94.055 11.84C94.055 11.6533 94.1083 11.4933 94.215 11.36C94.3483 11.2 94.5217 11.12 94.735 11.12C95.7217 11.12 96.4417 11.4533 96.895 12.12C97.3483 12.76 97.575 13.5467 97.575 14.48C97.575 15.36 97.375 16.2933 96.975 17.28C96.6017 18.2667 96.055 19.2 95.335 20.08C94.615 20.96 93.7483 21.68 92.735 22.24C91.7217 22.7733 90.575 23.04 89.295 23.04C87.3483 23.04 85.9217 22.5467 85.015 21.56C84.135 20.5467 83.695 19.28 83.695 17.76C83.695 16.3467 84.0283 14.8 84.695 13.12C85.3883 11.44 86.3483 9.81333 87.575 8.24C88.695 6.8 90.0017 5.49333 91.495 4.32C93.015 3.14667 94.655 2.22667 96.415 1.56C98.175 0.893332 99.9617 0.599999 101.775 0.679998C103.082 0.733332 104.108 1.17333 104.855 2C105.628 2.82667 106.015 4.02667 106.015 5.6C106.015 6.64 105.828 7.84 105.455 9.2C105.108 10.5333 104.548 12.04 103.775 13.72C104.228 13.0267 104.802 12.1733 105.495 11.16C106.188 10.1467 106.962 9.14667 107.815 8.16C108.668 7.17333 109.562 6.34667 110.495 5.68C111.428 4.98667 112.348 4.64 113.255 4.64C114.082 4.64 114.668 4.92 115.015 5.48C115.362 6.01333 115.535 6.68 115.535 7.48C115.535 8.25333 115.428 9.09333 115.215 10C115.002 10.9067 114.735 11.8 114.415 12.68C114.095 13.56 113.775 14.3733 113.455 15.12C113.162 15.84 112.922 16.4133 112.735 16.84C113.348 16.0667 114.095 15.16 114.975 14.12C115.882 13.0533 116.868 11.9733 117.935 10.88C119.002 9.76 120.095 8.72 121.215 7.76C122.362 6.8 123.495 6.02667 124.615 5.44C125.762 4.85333 126.842 4.56 127.855 4.56C129.055 4.56 129.655 5.12 129.655 6.24C129.655 7.06667 129.335 8.06667 128.695 9.24C128.482 9.64 128.095 10.3333 127.535 11.32C126.975 12.28 126.322 13.44 125.575 14.8C124.828 16.1333 124.055 17.5733 123.255 19.12C122.482 20.6667 121.748 22.2133 121.055 23.76C120.388 25.28 119.842 26.7067 119.415 28.04C118.988 29.4 118.775 30.56 118.775 31.52C118.775 32.2667 118.935 32.8533 119.255 33.28C119.575 33.7067 120.108 33.92 120.855 33.92C121.468 33.92 122.095 33.7333 122.735 33.36C123.402 32.9867 123.922 32.5867 124.295 32.16C124.428 31.9467 124.602 31.84 124.815 31.84C125.108 31.84 125.255 32.0133 125.255 32.36C125.255 32.52 125.175 32.7067 125.015 32.92C124.428 33.6133 123.708 34.1733 122.855 34.6C122.002 35.0533 121.148 35.28 120.295 35.28ZM128.302 27.68C127.395 27.68 126.755 27.4267 126.382 26.92C126.009 26.3867 125.822 25.7333 125.822 24.96C125.822 24.32 125.915 23.6267 126.102 22.88C126.315 22.1067 126.582 21.3467 126.902 20.6C126.929 19.56 127.209 18.5333 127.742 17.52C128.302 16.5067 129.049 15.6667 129.982 15C130.942 14.3333 132.062 14 133.342 14C134.595 14 135.462 14.36 135.942 15.08C136.449 15.8 136.702 16.6533 136.702 17.64C136.702 18.2267 136.635 18.8267 136.502 19.44C136.369 20.0267 136.195 20.5867 135.982 21.12C135.769 21.6533 135.502 22.2 135.182 22.76C134.862 23.2933 134.502 23.8267 134.102 24.36C134.902 24.2267 135.595 23.9733 136.182 23.6C136.795 23.2 137.409 22.6533 138.022 21.96C138.635 21.2667 139.355 20.3867 140.182 19.32C140.342 19.1333 140.515 19.04 140.702 19.04C140.915 19.04 141.089 19.1067 141.222 19.24C141.382 19.3733 141.462 19.5467 141.462 19.76C141.462 19.92 141.409 20.0667 141.302 20.2C140.529 21.2667 139.742 22.2267 138.942 23.08C138.169 23.9333 137.289 24.6 136.302 25.08C135.315 25.56 134.129 25.8 132.742 25.8C132.102 26.36 131.409 26.8133 130.662 27.16C129.915 27.5067 129.129 27.68 128.302 27.68ZM130.622 17.32C130.302 17.56 129.915 18.04 129.462 18.76C129.009 19.48 128.595 20.2667 128.222 21.12C128.275 21.9467 128.609 22.6933 129.222 23.36C129.862 24 130.835 24.36 132.142 24.44C133.102 23.5067 133.875 22.4133 134.462 21.16C135.049 19.88 135.342 18.7333 135.342 17.72C135.342 17.0267 135.182 16.4667 134.862 16.04C134.542 15.6133 134.035 15.4 133.342 15.4C132.862 15.4 132.395 15.48 131.942 15.64C131.489 15.8 131.075 16.0133 130.702 16.28C130.835 16.4133 130.902 16.5733 130.902 16.76C130.902 16.9733 130.809 17.16 130.622 17.32ZM127.222 24.88C127.222 25.3067 127.302 25.6533 127.462 25.92C127.649 26.16 127.929 26.28 128.302 26.28C129.075 26.28 129.862 26.04 130.662 25.56C129.889 25.3733 129.235 25.08 128.702 24.68C128.169 24.2533 127.755 23.7733 127.462 23.24C127.302 23.88 127.222 24.4267 127.222 24.88ZM145.037 26.76C144.557 26.76 144.157 26.6267 143.837 26.36C143.544 26.0933 143.397 25.72 143.397 25.24C143.397 24.2267 143.651 23.2133 144.157 22.2C144.664 21.16 145.237 20.1467 145.877 19.16C146.544 18.1467 147.091 17.2133 147.517 16.36C147.091 16.6533 146.611 16.8667 146.077 17C145.544 17.1333 145.024 17.2 144.517 17.2C143.797 17.2 143.237 17.1067 142.837 16.92C142.331 17.8 141.744 18.6933 141.077 19.6C140.411 20.48 139.757 21.28 139.117 22C138.504 22.72 137.984 23.2667 137.557 23.64C137.371 23.8 137.184 23.88 136.997 23.88C136.811 23.88 136.651 23.8133 136.517 23.68C136.384 23.5467 136.317 23.4 136.317 23.24C136.317 23.1067 136.371 22.9867 136.477 22.88C136.957 22.3733 137.517 21.72 138.157 20.92C138.824 20.12 139.477 19.2667 140.117 18.36C140.784 17.4533 141.331 16.6133 141.757 15.84C141.731 15.3067 141.797 14.7067 141.957 14.04C142.144 13.3733 142.384 12.7333 142.677 12.12C142.997 11.5067 143.344 11 143.717 10.6C144.091 10.1733 144.477 9.96 144.877 9.96C145.304 9.96 145.517 10.2133 145.517 10.72C145.517 11.1467 145.384 11.6933 145.117 12.36C144.877 13.0267 144.584 13.68 144.237 14.32C143.917 14.9333 143.637 15.44 143.397 15.84C143.744 15.9467 144.104 16 144.477 16C145.117 16 145.677 15.88 146.157 15.64C146.637 15.3733 147.064 15.12 147.437 14.88C147.811 14.6133 148.131 14.48 148.397 14.48C148.744 14.48 148.971 14.5733 149.077 14.76C149.211 14.92 149.277 15.1333 149.277 15.4C149.277 15.9067 149.144 16.4667 148.877 17.08C148.611 17.6667 148.411 18.04 148.277 18.2C148.091 18.4933 147.811 18.9333 147.437 19.52C147.064 20.08 146.691 20.68 146.317 21.32C145.944 21.96 145.637 22.5733 145.397 23.16C145.291 23.4533 145.184 23.76 145.077 24.08C144.997 24.3733 144.957 24.6267 144.957 24.84C144.957 25.1867 145.104 25.36 145.397 25.36C145.664 25.36 146.051 25.2267 146.557 24.96C147.197 24.6133 147.784 24.1733 148.317 23.64C148.877 23.08 149.357 22.6 149.757 22.2C149.784 22.1733 149.904 22.04 150.117 21.8C150.357 21.56 150.584 21.32 150.797 21.08C151.037 20.84 151.157 20.72 151.157 20.72C151.264 20.5867 151.397 20.52 151.557 20.52C151.691 20.52 151.811 20.6 151.917 20.76C152.051 20.8933 152.117 21.0667 152.117 21.28C152.117 21.52 152.051 21.72 151.917 21.88C151.517 22.44 150.971 23.0533 150.277 23.72C149.584 24.3867 148.971 24.9333 148.437 25.36C147.877 25.7867 147.304 26.1333 146.717 26.4C146.157 26.64 145.597 26.76 145.037 26.76ZM152.572 27.6C151.745 27.6 151.038 27.3467 150.452 26.84C149.892 26.3333 149.612 25.4533 149.612 24.2C149.612 23.3467 149.825 22.3467 150.252 21.2C150.705 20.0533 151.305 18.9467 152.052 17.88C152.798 16.7867 153.625 15.8933 154.532 15.2C155.438 14.48 156.358 14.12 157.292 14.12C157.905 14.12 158.358 14.3467 158.652 14.8C158.972 15.2267 159.132 15.7467 159.132 16.36C159.132 17.2667 158.838 18.1467 158.252 19C157.665 19.8533 156.918 20.5467 156.012 21.08C155.132 21.6133 154.252 21.88 153.372 21.88C152.652 21.88 152.105 21.6533 151.732 21.2C151.518 21.7333 151.345 22.2533 151.212 22.76C151.078 23.2667 151.012 23.7467 151.012 24.2C151.012 24.9733 151.172 25.52 151.492 25.84C151.838 26.1333 152.265 26.28 152.772 26.28C153.385 26.28 154.065 26.12 154.812 25.8C155.585 25.48 156.305 25.1067 156.972 24.68C157.638 24.2267 158.132 23.8533 158.452 23.56C158.985 23.1067 159.492 22.6133 159.972 22.08C160.478 21.52 160.918 21 161.292 20.52C161.425 20.36 161.572 20.28 161.732 20.28C161.892 20.28 162.025 20.36 162.132 20.52C162.265 20.6533 162.332 20.8267 162.332 21.04C162.332 21.2267 162.265 21.4133 162.132 21.6C161.705 22.1333 161.172 22.7467 160.532 23.44C159.918 24.1067 159.225 24.7333 158.452 25.32C158.025 25.6667 157.478 26.0133 156.812 26.36C156.145 26.7067 155.438 27 154.692 27.24C153.972 27.48 153.265 27.6 152.572 27.6ZM153.292 20.6C153.825 20.6 154.398 20.4267 155.012 20.08C155.652 19.7333 156.212 19.28 156.692 18.72C157.198 18.1333 157.532 17.5067 157.692 16.84C157.718 16.7867 157.732 16.72 157.732 16.64C157.732 16.56 157.732 16.4933 157.732 16.44C157.732 15.96 157.558 15.72 157.212 15.72C156.652 15.72 156.065 15.9333 155.452 16.36C154.838 16.76 154.252 17.3067 153.692 18C153.158 18.6667 152.678 19.4 152.252 20.2C152.358 20.28 152.465 20.36 152.572 20.44C152.678 20.4933 152.785 20.5333 152.892 20.56C152.945 20.5867 153.012 20.6 153.092 20.6C153.172 20.6 153.238 20.6 153.292 20.6ZM167.993 14.56C167.673 14.56 167.379 14.4533 167.113 14.24C166.873 14 166.753 13.7067 166.753 13.36C166.753 12.9867 166.873 12.68 167.113 12.44C167.353 12.2 167.646 12.08 167.993 12.08C168.366 12.08 168.673 12.2 168.913 12.44C169.153 12.68 169.273 12.9867 169.273 13.36C169.273 13.7067 169.139 14 168.873 14.24C168.633 14.4533 168.339 14.56 167.993 14.56ZM162.073 26.56C161.726 26.56 161.446 26.4667 161.233 26.28C161.019 26.0667 160.913 25.7333 160.913 25.28C160.913 24.72 161.046 24.04 161.313 23.24C161.579 22.4133 161.926 21.5733 162.353 20.72C162.779 19.84 163.233 19.04 163.713 18.32C164.219 17.5733 164.699 16.9867 165.153 16.56C165.339 16.3733 165.566 16.28 165.833 16.28C166.046 16.28 166.233 16.3333 166.393 16.44C166.553 16.5467 166.633 16.68 166.633 16.84C166.633 16.9733 166.566 17.1067 166.433 17.24C166.246 17.4267 166.006 17.7333 165.713 18.16C165.446 18.56 165.179 18.9867 164.913 19.44C164.646 19.8667 164.446 20.2267 164.313 20.52C164.073 21.0267 163.806 21.6 163.513 22.24C163.219 22.88 163.006 23.4 162.873 23.8C162.793 24.0667 162.753 24.2667 162.753 24.4C162.753 24.6933 162.859 24.84 163.073 24.84C163.259 24.84 163.473 24.76 163.713 24.6C163.953 24.4133 164.166 24.2533 164.353 24.12C165.019 23.5867 165.633 23.0267 166.193 22.44C166.779 21.8267 167.313 21.2533 167.793 20.72C167.899 20.5867 168.033 20.52 168.193 20.52C168.326 20.52 168.446 20.6 168.553 20.76C168.686 20.8933 168.753 21.0667 168.753 21.28C168.753 21.52 168.686 21.72 168.553 21.88C168.153 22.44 167.593 23.0667 166.873 23.76C166.179 24.4267 165.566 24.96 165.033 25.36C164.686 25.6267 164.219 25.8933 163.633 26.16C163.073 26.4267 162.553 26.56 162.073 26.56ZM173.536 26.76C173.056 26.76 172.656 26.6267 172.336 26.36C172.042 26.0933 171.896 25.72 171.896 25.24C171.896 24.2267 172.149 23.2133 172.656 22.2C173.162 21.16 173.736 20.1467 174.376 19.16C175.042 18.1467 175.589 17.2133 176.016 16.36C175.589 16.6533 175.109 16.8667 174.576 17C174.042 17.1333 173.522 17.2 173.016 17.2C172.296 17.2 171.736 17.1067 171.336 16.92C170.829 17.8 170.242 18.6933 169.576 19.6C168.909 20.48 168.256 21.28 167.616 22C167.002 22.72 166.482 23.2667 166.056 23.64C165.869 23.8 165.682 23.88 165.496 23.88C165.309 23.88 165.149 23.8133 165.016 23.68C164.882 23.5467 164.816 23.4 164.816 23.24C164.816 23.1067 164.869 22.9867 164.976 22.88C165.456 22.3733 166.016 21.72 166.656 20.92C167.322 20.12 167.976 19.2667 168.616 18.36C169.282 17.4533 169.829 16.6133 170.256 15.84C170.229 15.3067 170.296 14.7067 170.456 14.04C170.642 13.3733 170.882 12.7333 171.176 12.12C171.496 11.5067 171.842 11 172.216 10.6C172.589 10.1733 172.976 9.96 173.376 9.96C173.802 9.96 174.016 10.2133 174.016 10.72C174.016 11.1467 173.882 11.6933 173.616 12.36C173.376 13.0267 173.082 13.68 172.736 14.32C172.416 14.9333 172.136 15.44 171.896 15.84C172.242 15.9467 172.602 16 172.976 16C173.616 16 174.176 15.88 174.656 15.64C175.136 15.3733 175.562 15.12 175.936 14.88C176.309 14.6133 176.629 14.48 176.896 14.48C177.242 14.48 177.469 14.5733 177.576 14.76C177.709 14.92 177.776 15.1333 177.776 15.4C177.776 15.9067 177.642 16.4667 177.376 17.08C177.109 17.6667 176.909 18.04 176.776 18.2C176.589 18.4933 176.309 18.9333 175.936 19.52C175.562 20.08 175.189 20.68 174.816 21.32C174.442 21.96 174.136 22.5733 173.896 23.16C173.789 23.4533 173.682 23.76 173.576 24.08C173.496 24.3733 173.456 24.6267 173.456 24.84C173.456 25.1867 173.602 25.36 173.896 25.36C174.162 25.36 174.549 25.2267 175.056 24.96C175.696 24.6133 176.282 24.1733 176.816 23.64C177.376 23.08 177.856 22.6 178.256 22.2C178.282 22.1733 178.402 22.04 178.616 21.8C178.856 21.56 179.082 21.32 179.296 21.08C179.536 20.84 179.656 20.72 179.656 20.72C179.762 20.5867 179.896 20.52 180.056 20.52C180.189 20.52 180.309 20.6 180.416 20.76C180.549 20.8933 180.616 21.0667 180.616 21.28C180.616 21.52 180.549 21.72 180.416 21.88C180.016 22.44 179.469 23.0533 178.776 23.72C178.082 24.3867 177.469 24.9333 176.936 25.36C176.376 25.7867 175.802 26.1333 175.216 26.4C174.656 26.64 174.096 26.76 173.536 26.76ZM179.59 27.2C178.843 27.2 178.283 26.9867 177.91 26.56C177.563 26.1067 177.39 25.5467 177.39 24.88C177.39 24.1333 177.603 23.2667 178.03 22.28C178.483 21.2667 179.07 20.2267 179.79 19.16C180.51 18.0933 181.297 17.1067 182.15 16.2C183.03 15.2667 183.91 14.52 184.79 13.96C185.67 13.3733 186.483 13.08 187.23 13.08C187.737 13.08 188.23 13.16 188.71 13.32C189.19 13.4533 189.577 13.7333 189.87 14.16C190.19 14.5867 190.35 15.2133 190.35 16.04C190.35 16.3333 190.27 16.5467 190.11 16.68C189.95 16.8133 189.803 16.88 189.67 16.88C189.377 16.88 189.23 16.7733 189.23 16.56C189.097 15.7067 188.817 15.1467 188.39 14.88C187.99 14.6133 187.603 14.48 187.23 14.48C186.697 14.48 186.07 14.7467 185.35 15.28C184.63 15.8133 183.897 16.4933 183.15 17.32C182.403 18.1467 181.697 19.04 181.03 20C180.39 20.9333 179.87 21.84 179.47 22.72C179.07 23.5733 178.87 24.28 178.87 24.84C178.87 25.1067 178.91 25.3467 178.99 25.56C179.097 25.7733 179.257 25.88 179.47 25.88C179.87 25.88 180.39 25.6667 181.03 25.24C181.67 24.8133 182.35 24.2667 183.07 23.6C183.817 22.9067 184.55 22.1867 185.27 21.44C185.99 20.6933 186.643 19.9867 187.23 19.32C187.817 18.6533 188.27 18.12 188.59 17.72C188.75 17.48 188.95 17.36 189.19 17.36C189.377 17.36 189.55 17.4267 189.71 17.56C189.87 17.6933 189.95 17.8667 189.95 18.08C189.95 18.1867 189.91 18.3067 189.83 18.44C189.643 18.7333 189.417 19.1467 189.15 19.68C188.91 20.2133 188.657 20.7867 188.39 21.4C188.15 22.0133 187.937 22.5867 187.75 23.12C187.59 23.6267 187.51 24.0133 187.51 24.28C187.51 24.5467 187.603 24.68 187.79 24.68C187.923 24.68 188.083 24.6133 188.27 24.48C188.483 24.3467 188.67 24.2267 188.83 24.12C189.47 23.5867 190.083 23.0267 190.67 22.44C191.257 21.8267 191.79 21.2533 192.27 20.72C192.377 20.5867 192.51 20.52 192.67 20.52C192.803 20.52 192.923 20.6 193.03 20.76C193.163 20.8933 193.23 21.0667 193.23 21.28C193.23 21.52 193.163 21.72 193.03 21.88C192.603 22.44 192.043 23.0667 191.35 23.76C190.657 24.4267 190.043 24.96 189.51 25.36C189.163 25.6 188.75 25.84 188.27 26.08C187.817 26.2933 187.377 26.4 186.95 26.4C186.63 26.4 186.363 26.3067 186.15 26.12C185.937 25.9067 185.83 25.5467 185.83 25.04C185.83 24.64 185.897 24.1867 186.03 23.68C186.163 23.1733 186.323 22.6533 186.51 22.12C185.763 22.92 184.963 23.7067 184.11 24.48C183.257 25.2533 182.43 25.9067 181.63 26.44C180.857 26.9467 180.177 27.2 179.59 27.2Z" fill="white"/>
</svg>
